<svg width="182" height="48" viewBox="0 0 182 48" fill="none" xmlns="http://www.w3.org/2000/svg">
<g clip-path="url(#clip0_7_204)">
<path d="M2.69605 36.5V11.3H7.30405V32.9H18.464V36.5H2.69605ZM24.9002 15.872C24.0602 15.872 23.3642 15.62 22.8122 15.116C22.2842 14.612 22.0202 13.976 22.0202 13.208C22.0202 12.44 22.2842 11.816 22.8122 11.336C23.3642 10.832 24.0602 10.58 24.9002 10.58C25.7402 10.58 26.4242 10.832 26.9522 11.336C27.5042 11.816 27.7802 12.44 27.7802 13.208C27.7802 13.976 27.5042 14.612 26.9522 15.116C26.4242 15.62 25.7402 15.872 24.9002 15.872ZM22.5962 36.5V18.644H27.2042V36.5H22.5962ZM32.0138 36.5V18.644H36.0818L36.4418 21.668C36.9938 20.612 37.7858 19.772 38.8178 19.148C39.8738 18.524 41.1098 18.212 42.5258 18.212C44.7338 18.212 46.4498 18.908 47.6738 20.3C48.8978 21.692 49.5098 23.732 49.5098 26.42V36.5H44.9018V26.852C44.9018 25.316 44.5898 24.14 43.9658 23.324C43.3418 22.508 42.3698 22.1 41.0498 22.1C39.7538 22.1 38.6858 22.556 37.8458 23.468C37.0298 24.38 36.6218 25.652 36.6218 27.284V36.5H32.0138ZM61.4762 31.172C60.6122 31.172 59.8082 31.076 59.0642 30.884L57.7322 32.216C58.1402 32.432 58.6922 32.612 59.3882 32.756C60.0842 32.9 61.2122 33.044 62.7722 33.188C65.1482 33.404 66.8762 33.968 67.9562 34.88C69.0362 35.792 69.5762 37.052 69.5762 38.66C69.5762 39.716 69.2882 40.712 68.7122 41.648C68.1362 42.608 67.2482 43.376 66.0482 43.952C64.8482 44.552 63.3122 44.852 61.4402 44.852C58.8962 44.852 56.8442 44.372 55.2842 43.412C53.7242 42.476 52.9442 41.06 52.9442 39.164C52.9442 37.556 53.7242 36.164 55.2842 34.988C54.8042 34.772 54.3842 34.544 54.0242 34.304C53.6882 34.064 53.3882 33.812 53.1242 33.548V32.72L56.2562 29.408C54.8642 28.184 54.1682 26.612 54.1682 24.692C54.1682 23.492 54.4562 22.4 55.0322 21.416C55.6322 20.432 56.4722 19.652 57.5522 19.076C58.6322 18.5 59.9402 18.212 61.4762 18.212C62.4842 18.212 63.4202 18.356 64.2842 18.644H71.0522V21.452L67.9922 21.668C68.4722 22.58 68.7122 23.588 68.7122 24.692C68.7122 25.892 68.4242 26.984 67.8482 27.968C67.2722 28.952 66.4322 29.732 65.3282 30.308C64.2482 30.884 62.9642 31.172 61.4762 31.172ZM61.4762 27.644C62.4122 27.644 63.1802 27.392 63.7802 26.888C64.4042 26.384 64.7162 25.664 64.7162 24.728C64.7162 23.792 64.4042 23.072 63.7802 22.568C63.1802 22.064 62.4122 21.812 61.4762 21.812C60.4922 21.812 59.7002 22.064 59.1002 22.568C58.5002 23.072 58.2002 23.792 58.2002 24.728C58.2002 25.664 58.5002 26.384 59.1002 26.888C59.7002 27.392 60.4922 27.644 61.4762 27.644ZM57.1562 38.696C57.1562 39.584 57.5642 40.244 58.3802 40.676C59.2202 41.132 60.2402 41.36 61.4402 41.36C62.5922 41.36 63.5282 41.12 64.2482 40.64C64.9682 40.184 65.3282 39.56 65.3282 38.768C65.3282 38.12 65.0882 37.58 64.6082 37.148C64.1522 36.716 63.2282 36.452 61.8362 36.356C60.8522 36.284 59.9402 36.176 59.1002 36.032C58.4042 36.416 57.9002 36.836 57.5882 37.292C57.3002 37.748 57.1562 38.216 57.1562 38.696ZM81.1083 36.932C78.8763 36.932 77.1483 36.236 75.9243 34.844C74.7243 33.452 74.1243 31.412 74.1243 28.724V18.644H78.6963V28.292C78.6963 29.828 79.0083 31.004 79.6323 31.82C80.2563 32.636 81.2403 33.044 82.5843 33.044C83.8563 33.044 84.9003 32.588 85.7163 31.676C86.5563 30.764 86.9763 29.492 86.9763 27.86V18.644H91.5843V36.5H87.5163L87.1563 33.476C86.6043 34.532 85.8003 35.372 84.7443 35.996C83.7123 36.62 82.5003 36.932 81.1083 36.932ZM102.471 36.932C100.935 36.932 99.6746 36.692 98.6906 36.212C97.7066 35.708 96.9746 35.048 96.4946 34.232C96.0146 33.416 95.7746 32.516 95.7746 31.532C95.7746 29.876 96.4226 28.532 97.7186 27.5C99.0146 26.468 100.959 25.952 103.551 25.952H108.087V25.52C108.087 24.296 107.739 23.396 107.043 22.82C106.347 22.244 105.483 21.956 104.451 21.956C103.515 21.956 102.699 22.184 102.003 22.64C101.307 23.072 100.875 23.72 100.707 24.584H96.2066C96.3266 23.288 96.7586 22.16 97.5026 21.2C98.2706 20.24 99.2546 19.508 100.455 19.004C101.655 18.476 102.999 18.212 104.487 18.212C107.031 18.212 109.035 18.848 110.499 20.12C111.963 21.392 112.695 23.192 112.695 25.52V36.5H108.771L108.339 33.62C107.811 34.58 107.067 35.372 106.107 35.996C105.171 36.62 103.959 36.932 102.471 36.932ZM103.515 33.332C104.835 33.332 105.855 32.9 106.575 32.036C107.319 31.172 107.787 30.104 107.979 28.832H104.055C102.831 28.832 101.955 29.06 101.427 29.516C100.899 29.948 100.635 30.488 100.635 31.136C100.635 31.832 100.899 32.372 101.427 32.756C101.955 33.14 102.651 33.332 103.515 33.332Z" fill="white"/>
<path d="M116.437 38.72C116.277 38.72 116.197 38.608 116.197 38.384C116.197 37.936 116.453 37.168 116.965 36.08C117.509 34.96 118.213 33.664 119.077 32.192C119.941 30.72 120.885 29.168 121.909 27.536C122.933 25.904 123.941 24.352 124.933 22.88C125.925 21.376 126.805 20.064 127.573 18.944C128.373 17.824 128.965 17.024 129.349 16.544C129.029 16.576 128.437 16.688 127.573 16.88C126.709 17.04 125.797 17.264 124.837 17.552C123.877 17.808 123.045 18.144 122.341 18.56C121.669 18.944 121.333 19.376 121.333 19.856C121.333 20.016 121.349 20.128 121.381 20.192C121.445 20.256 121.477 20.32 121.477 20.384C121.477 20.608 121.349 20.72 121.093 20.72C120.869 20.72 120.709 20.544 120.613 20.192C120.549 19.808 120.517 19.536 120.517 19.376C120.517 18.64 120.805 17.984 121.381 17.408C121.989 16.8 122.677 16.288 123.445 15.872C124.245 15.424 124.933 15.104 125.509 14.912C127.013 14.4 128.677 14.048 130.501 13.856C132.357 13.632 134.037 13.52 135.541 13.52C136.437 13.52 137.349 13.584 138.277 13.712C139.237 13.808 140.037 14.112 140.677 14.624C141.349 15.104 141.685 15.92 141.685 17.072C141.685 17.328 141.637 17.664 141.541 18.08C141.445 18.464 141.285 18.816 141.061 19.136C140.869 19.424 140.597 19.568 140.245 19.568C140.149 19.568 140.101 19.552 140.101 19.52C140.101 19.456 140.181 19.296 140.341 19.04C140.533 18.784 140.629 18.496 140.629 18.176C140.629 17.696 140.373 17.312 139.861 17.024C139.381 16.736 138.789 16.544 138.085 16.448C137.381 16.32 136.709 16.24 136.069 16.208C135.429 16.176 134.949 16.16 134.629 16.16C133.637 16.16 132.629 16.208 131.605 16.304C131.925 16.432 132.165 16.624 132.325 16.88C131.205 18.128 130.069 19.408 128.917 20.72C127.797 22 126.725 23.312 125.701 24.656H136.309C136.469 24.656 136.549 24.72 136.549 24.848C136.549 25.136 136.389 25.36 136.069 25.52C135.781 25.648 135.525 25.728 135.301 25.76C134.885 25.824 134.437 25.872 133.957 25.904C133.509 25.936 133.061 25.984 132.613 26.048C131.173 26.176 129.701 26.336 128.197 26.528C126.693 26.72 125.253 27.056 123.877 27.536C122.533 29.168 121.365 30.912 120.373 32.768C119.381 34.592 118.325 36.384 117.205 38.144C117.109 38.272 116.997 38.4 116.869 38.528C116.773 38.656 116.629 38.72 116.437 38.72ZM136.357 38.192C135.653 38.192 135.109 37.968 134.725 37.52C134.373 37.04 134.197 36.464 134.197 35.792C134.197 35.28 134.469 34.432 135.013 33.248C135.557 32.064 136.245 30.736 137.077 29.264C137.909 27.792 138.773 26.304 139.669 24.8C140.597 23.296 141.429 21.952 142.165 20.768C142.933 19.584 143.509 18.704 143.893 18.128C144.213 17.648 144.533 17.184 144.853 16.736C145.173 16.256 145.653 16.016 146.293 16.016C146.485 16.016 146.821 16.08 147.301 16.208C147.813 16.336 148.293 16.496 148.741 16.688C149.221 16.848 149.477 17.024 149.509 17.216C148.901 17.44 148.149 18.064 147.253 19.088C146.389 20.08 145.445 21.296 144.421 22.736C143.429 24.144 142.453 25.616 141.493 27.152C140.565 28.656 139.733 30.048 138.997 31.328C138.261 32.576 137.733 33.536 137.413 34.208C137.285 34.496 137.141 34.816 136.981 35.168C136.853 35.52 136.789 35.872 136.789 36.224C136.789 36.736 137.061 36.992 137.605 36.992C138.085 36.992 138.645 36.752 139.285 36.272C139.925 35.792 140.581 35.2 141.253 34.496C141.925 33.792 142.565 33.088 143.173 32.384C143.781 31.648 144.293 31.04 144.709 30.56C145.125 30.08 145.365 29.84 145.429 29.84C145.557 29.84 145.621 29.904 145.621 30.032C145.621 30.064 145.477 30.256 145.189 30.608C144.933 30.928 144.645 31.248 144.325 31.568C144.037 31.888 143.861 32.096 143.797 32.192C143.381 32.672 142.885 33.248 142.309 33.92C141.733 34.592 141.109 35.264 140.437 35.936C139.797 36.576 139.125 37.12 138.421 37.568C137.717 37.984 137.029 38.192 136.357 38.192ZM152.566 38.192C151.958 38.192 151.446 38 151.03 37.616C150.614 37.232 150.406 36.72 150.406 36.08C150.406 35.408 150.582 34.656 150.934 33.824C151.318 32.96 151.654 32.24 151.942 31.664C151.558 32.144 151.062 32.752 150.454 33.488C149.846 34.192 149.19 34.896 148.486 35.6C147.782 36.304 147.062 36.896 146.326 37.376C145.59 37.824 144.886 38.048 144.214 38.048C143.51 38.048 142.998 37.792 142.678 37.28C142.39 36.768 142.246 36.208 142.246 35.6C142.246 35.216 142.294 34.832 142.39 34.448C142.614 33.616 143.046 32.752 143.686 31.856C144.326 30.928 145.062 30.048 145.894 29.216C146.758 28.352 147.638 27.552 148.534 26.816C149.43 26.08 150.23 25.472 150.934 24.992C151.254 24.768 151.59 24.576 151.942 24.416C152.326 24.224 152.726 24.128 153.142 24.128C153.654 24.128 154.118 24.272 154.534 24.56C154.982 24.816 155.382 25.12 155.734 25.472C155.83 25.312 155.894 25.184 155.926 25.088C155.99 24.992 156.118 24.944 156.31 24.944C156.438 24.944 156.726 24.992 157.174 25.088C157.654 25.184 158.102 25.296 158.518 25.424C158.934 25.552 159.142 25.68 159.142 25.808C159.142 25.84 159.126 25.856 159.094 25.856C158.87 26.176 158.63 26.496 158.374 26.816C158.118 27.136 157.862 27.456 157.606 27.776C156.806 28.864 156.022 30 155.254 31.184C154.518 32.368 153.878 33.6 153.334 34.88C153.27 35.072 153.206 35.28 153.142 35.504C153.078 35.696 153.046 35.904 153.046 36.128C153.046 36.704 153.334 36.992 153.91 36.992C154.358 36.992 154.902 36.752 155.542 36.272C156.182 35.792 156.838 35.2 157.51 34.496C158.214 33.792 158.87 33.088 159.478 32.384C160.086 31.648 160.598 31.04 161.014 30.56C161.43 30.08 161.67 29.84 161.734 29.84C161.83 29.84 161.878 29.904 161.878 30.032C161.878 30.096 161.638 30.416 161.158 30.992C160.678 31.536 160.102 32.176 159.43 32.912C158.758 33.648 158.15 34.32 157.606 34.928C157.062 35.504 156.71 35.872 156.55 36.032C156.038 36.512 155.43 36.992 154.726 37.472C154.022 37.952 153.302 38.192 152.566 38.192ZM144.742 36.944C144.998 36.944 145.254 36.88 145.51 36.752C145.798 36.592 146.038 36.464 146.23 36.368C147.478 35.632 148.662 34.672 149.782 33.488C150.902 32.304 151.942 31.04 152.902 29.696C153.862 28.352 154.726 27.072 155.494 25.856C155.43 25.824 155.318 25.808 155.158 25.808C154.838 25.808 154.502 25.92 154.15 26.144C152.326 27.072 150.582 28.336 148.918 29.936C147.286 31.504 145.926 33.184 144.838 34.976C144.71 35.168 144.582 35.408 144.454 35.696C144.358 35.952 144.31 36.208 144.31 36.464C144.31 36.784 144.454 36.944 144.742 36.944ZM161.101 39.776C160.173 39.776 159.485 39.408 159.037 38.672C158.621 37.968 158.413 37.2 158.413 36.368C158.413 36.304 158.429 36.208 158.461 36.08C158.461 35.952 158.525 35.888 158.653 35.888C158.749 35.888 158.813 35.952 158.845 36.08C158.877 36.176 158.909 36.256 158.941 36.32C159.229 37.28 159.885 37.76 160.909 37.76C161.453 37.76 161.901 37.584 162.253 37.232C162.605 36.88 162.781 36.416 162.781 35.84C162.781 35.2 162.621 34.528 162.301 33.824C161.981 33.12 161.645 32.368 161.293 31.568C160.973 30.768 160.813 29.936 160.813 29.072C160.813 28.368 160.925 27.744 161.149 27.2C161.373 26.624 161.789 26.08 162.397 25.568C163.037 25.024 163.773 24.544 164.605 24.128C165.437 23.712 166.269 23.392 167.101 23.168C167.933 22.944 168.637 22.832 169.213 22.832C169.885 22.832 170.333 22.992 170.557 23.312C170.781 23.632 170.893 24.112 170.893 24.752C170.893 24.88 170.877 25.056 170.845 25.28C170.813 25.472 170.717 25.6 170.557 25.664C169.853 25.888 169.101 26.208 168.301 26.624C167.501 27.008 166.957 27.568 166.669 28.304C166.637 28.4 166.573 28.448 166.477 28.448C166.317 28.448 166.237 28.368 166.237 28.208C166.237 27.76 166.509 27.264 167.053 26.72C167.597 26.144 168.045 25.744 168.397 25.52C167.469 25.776 166.541 26.144 165.613 26.624C164.717 27.072 163.965 27.664 163.357 28.4C162.781 29.136 162.493 30.064 162.493 31.184C162.493 32.176 162.701 33.12 163.117 34.016C163.533 34.88 163.741 35.808 163.741 36.8C163.741 37.6 163.517 38.288 163.069 38.864C162.653 39.472 161.997 39.776 161.101 39.776ZM175.68 38.192C175.104 38.192 174.592 38.032 174.144 37.712C173.696 37.36 173.472 36.88 173.472 36.272C173.472 35.792 173.648 35.104 174 34.208C174.384 33.312 174.832 32.368 175.344 31.376C175.888 30.352 176.416 29.408 176.928 28.544C177.44 27.648 177.84 26.96 178.128 26.48C177.424 26.8 176.64 27.36 175.776 28.16C174.944 28.96 174.112 29.872 173.28 30.896C172.448 31.888 171.68 32.88 170.976 33.872C170.272 34.864 169.712 35.696 169.296 36.368C169.072 36.784 168.768 37.168 168.384 37.52C168.032 37.84 167.584 38 167.04 38H166.656C166.688 37.52 166.896 36.784 167.28 35.792C167.664 34.768 168.176 33.6 168.816 32.288C169.456 30.944 170.144 29.568 170.88 28.16C171.648 26.72 172.4 25.328 173.136 23.984C173.904 22.64 174.576 21.456 175.152 20.432C175.76 19.376 176.224 18.608 176.544 18.128C176.864 17.648 177.184 17.184 177.504 16.736C177.824 16.256 178.32 16.016 178.992 16.016C179.216 16.016 179.568 16.08 180.048 16.208C180.528 16.336 180.976 16.496 181.392 16.688C181.84 16.848 182.096 17.024 182.16 17.216C181.552 17.44 180.8 18.064 179.904 19.088C179.04 20.08 178.096 21.296 177.072 22.736C176.08 24.144 175.104 25.616 174.144 27.152C173.216 28.656 172.384 30.048 171.648 31.328C170.912 32.576 170.384 33.536 170.064 34.208C170.064 34.24 170.048 34.272 170.016 34.304C170.016 34.304 170.016 34.32 170.016 34.352C170.016 34.384 170.016 34.4 170.016 34.4C170.048 34.4 170.064 34.4 170.064 34.4C170.096 34.4 170.144 34.352 170.208 34.256C170.272 34.16 170.32 34.096 170.352 34.064C170.832 33.488 171.456 32.688 172.224 31.664C173.024 30.64 173.888 29.6 174.816 28.544C175.744 27.488 176.672 26.592 177.6 25.856C178.56 25.12 179.44 24.752 180.24 24.752C180.592 24.752 180.944 24.848 181.296 25.04C181.68 25.2 181.872 25.472 181.872 25.856C181.872 26.112 181.76 26.384 181.536 26.672C181.376 26.928 181.184 27.184 180.96 27.44C180.768 27.696 180.576 27.952 180.384 28.208C179.616 29.232 178.88 30.304 178.176 31.424C177.504 32.512 176.928 33.664 176.448 34.88C176.384 35.072 176.304 35.28 176.208 35.504C176.144 35.696 176.112 35.904 176.112 36.128C176.112 36.704 176.4 36.992 176.976 36.992C177.456 36.992 178 36.752 178.608 36.272C179.248 35.792 179.904 35.2 180.576 34.496C181.28 33.792 181.92 33.088 182.496 32.384C183.104 31.648 183.616 31.04 184.032 30.56C184.448 30.08 184.704 29.84 184.8 29.84C184.896 29.84 184.944 29.904 184.944 30.032C184.944 30.096 184.704 30.416 184.224 30.992C183.744 31.536 183.168 32.176 182.496 32.912C181.856 33.648 181.248 34.32 180.672 34.928C180.128 35.504 179.776 35.872 179.616 36.032C179.104 36.544 178.496 37.04 177.792 37.52C177.12 37.968 176.416 38.192 175.68 38.192Z" fill="url(#paint0_linear_7_204)"/>
<path d="M116.437 38.72C116.277 38.72 116.197 38.608 116.197 38.384C116.197 37.936 116.453 37.168 116.965 36.08C117.509 34.96 118.213 33.664 119.077 32.192C119.941 30.72 120.885 29.168 121.909 27.536C122.933 25.904 123.941 24.352 124.933 22.88C125.925 21.376 126.805 20.064 127.573 18.944C128.373 17.824 128.965 17.024 129.349 16.544C129.029 16.576 128.437 16.688 127.573 16.88C126.709 17.04 125.797 17.264 124.837 17.552C123.877 17.808 123.045 18.144 122.341 18.56C121.669 18.944 121.333 19.376 121.333 19.856C121.333 20.016 121.349 20.128 121.381 20.192C121.445 20.256 121.477 20.32 121.477 20.384C121.477 20.608 121.349 20.72 121.093 20.72C120.869 20.72 120.709 20.544 120.613 20.192C120.549 19.808 120.517 19.536 120.517 19.376C120.517 18.64 120.805 17.984 121.381 17.408C121.989 16.8 122.677 16.288 123.445 15.872C124.245 15.424 124.933 15.104 125.509 14.912C127.013 14.4 128.677 14.048 130.501 13.856C132.357 13.632 134.037 13.52 135.541 13.52C136.437 13.52 137.349 13.584 138.277 13.712C139.237 13.808 140.037 14.112 140.677 14.624C141.349 15.104 141.685 15.92 141.685 17.072C141.685 17.328 141.637 17.664 141.541 18.08C141.445 18.464 141.285 18.816 141.061 19.136C140.869 19.424 140.597 19.568 140.245 19.568C140.149 19.568 140.101 19.552 140.101 19.52C140.101 19.456 140.181 19.296 140.341 19.04C140.533 18.784 140.629 18.496 140.629 18.176C140.629 17.696 140.373 17.312 139.861 17.024C139.381 16.736 138.789 16.544 138.085 16.448C137.381 16.32 136.709 16.24 136.069 16.208C135.429 16.176 134.949 16.16 134.629 16.16C133.637 16.16 132.629 16.208 131.605 16.304C131.925 16.432 132.165 16.624 132.325 16.88C131.205 18.128 130.069 19.408 128.917 20.72C127.797 22 126.725 23.312 125.701 24.656H136.309C136.469 24.656 136.549 24.72 136.549 24.848C136.549 25.136 136.389 25.36 136.069 25.52C135.781 25.648 135.525 25.728 135.301 25.76C134.885 25.824 134.437 25.872 133.957 25.904C133.509 25.936 133.061 25.984 132.613 26.048C131.173 26.176 129.701 26.336 128.197 26.528C126.693 26.72 125.253 27.056 123.877 27.536C122.533 29.168 121.365 30.912 120.373 32.768C119.381 34.592 118.325 36.384 117.205 38.144C117.109 38.272 116.997 38.4 116.869 38.528C116.773 38.656 116.629 38.72 116.437 38.72ZM136.357 38.192C135.653 38.192 135.109 37.968 134.725 37.52C134.373 37.04 134.197 36.464 134.197 35.792C134.197 35.28 134.469 34.432 135.013 33.248C135.557 32.064 136.245 30.736 137.077 29.264C137.909 27.792 138.773 26.304 139.669 24.8C140.597 23.296 141.429 21.952 142.165 20.768C142.933 19.584 143.509 18.704 143.893 18.128C144.213 17.648 144.533 17.184 144.853 16.736C145.173 16.256 145.653 16.016 146.293 16.016C146.485 16.016 146.821 16.08 147.301 16.208C147.813 16.336 148.293 16.496 148.741 16.688C149.221 16.848 149.477 17.024 149.509 17.216C148.901 17.44 148.149 18.064 147.253 19.088C146.389 20.08 145.445 21.296 144.421 22.736C143.429 24.144 142.453 25.616 141.493 27.152C140.565 28.656 139.733 30.048 138.997 31.328C138.261 32.576 137.733 33.536 137.413 34.208C137.285 34.496 137.141 34.816 136.981 35.168C136.853 35.52 136.789 35.872 136.789 36.224C136.789 36.736 137.061 36.992 137.605 36.992C138.085 36.992 138.645 36.752 139.285 36.272C139.925 35.792 140.581 35.2 141.253 34.496C141.925 33.792 142.565 33.088 143.173 32.384C143.781 31.648 144.293 31.04 144.709 30.56C145.125 30.08 145.365 29.84 145.429 29.84C145.557 29.84 145.621 29.904 145.621 30.032C145.621 30.064 145.477 30.256 145.189 30.608C144.933 30.928 144.645 31.248 144.325 31.568C144.037 31.888 143.861 32.096 143.797 32.192C143.381 32.672 142.885 33.248 142.309 33.92C141.733 34.592 141.109 35.264 140.437 35.936C139.797 36.576 139.125 37.12 138.421 37.568C137.717 37.984 137.029 38.192 136.357 38.192ZM152.566 38.192C151.958 38.192 151.446 38 151.03 37.616C150.614 37.232 150.406 36.72 150.406 36.08C150.406 35.408 150.582 34.656 150.934 33.824C151.318 32.96 151.654 32.24 151.942 31.664C151.558 32.144 151.062 32.752 150.454 33.488C149.846 34.192 149.19 34.896 148.486 35.6C147.782 36.304 147.062 36.896 146.326 37.376C145.59 37.824 144.886 38.048 144.214 38.048C143.51 38.048 142.998 37.792 142.678 37.28C142.39 36.768 142.246 36.208 142.246 35.6C142.246 35.216 142.294 34.832 142.39 34.448C142.614 33.616 143.046 32.752 143.686 31.856C144.326 30.928 145.062 30.048 145.894 29.216C146.758 28.352 147.638 27.552 148.534 26.816C149.43 26.08 150.23 25.472 150.934 24.992C151.254 24.768 151.59 24.576 151.942 24.416C152.326 24.224 152.726 24.128 153.142 24.128C153.654 24.128 154.118 24.272 154.534 24.56C154.982 24.816 155.382 25.12 155.734 25.472C155.83 25.312 155.894 25.184 155.926 25.088C155.99 24.992 156.118 24.944 156.31 24.944C156.438 24.944 156.726 24.992 157.174 25.088C157.654 25.184 158.102 25.296 158.518 25.424C158.934 25.552 159.142 25.68 159.142 25.808C159.142 25.84 159.126 25.856 159.094 25.856C158.87 26.176 158.63 26.496 158.374 26.816C158.118 27.136 157.862 27.456 157.606 27.776C156.806 28.864 156.022 30 155.254 31.184C154.518 32.368 153.878 33.6 153.334 34.88C153.27 35.072 153.206 35.28 153.142 35.504C153.078 35.696 153.046 35.904 153.046 36.128C153.046 36.704 153.334 36.992 153.91 36.992C154.358 36.992 154.902 36.752 155.542 36.272C156.182 35.792 156.838 35.2 157.51 34.496C158.214 33.792 158.87 33.088 159.478 32.384C160.086 31.648 160.598 31.04 161.014 30.56C161.43 30.08 161.67 29.84 161.734 29.84C161.83 29.84 161.878 29.904 161.878 30.032C161.878 30.096 161.638 30.416 161.158 30.992C160.678 31.536 160.102 32.176 159.43 32.912C158.758 33.648 158.15 34.32 157.606 34.928C157.062 35.504 156.71 35.872 156.55 36.032C156.038 36.512 155.43 36.992 154.726 37.472C154.022 37.952 153.302 38.192 152.566 38.192ZM144.742 36.944C144.998 36.944 145.254 36.88 145.51 36.752C145.798 36.592 146.038 36.464 146.23 36.368C147.478 35.632 148.662 34.672 149.782 33.488C150.902 32.304 151.942 31.04 152.902 29.696C153.862 28.352 154.726 27.072 155.494 25.856C155.43 25.824 155.318 25.808 155.158 25.808C154.838 25.808 154.502 25.92 154.15 26.144C152.326 27.072 150.582 28.336 148.918 29.936C147.286 31.504 145.926 33.184 144.838 34.976C144.71 35.168 144.582 35.408 144.454 35.696C144.358 35.952 144.31 36.208 144.31 36.464C144.31 36.784 144.454 36.944 144.742 36.944ZM161.101 39.776C160.173 39.776 159.485 39.408 159.037 38.672C158.621 37.968 158.413 37.2 158.413 36.368C158.413 36.304 158.429 36.208 158.461 36.08C158.461 35.952 158.525 35.888 158.653 35.888C158.749 35.888 158.813 35.952 158.845 36.08C158.877 36.176 158.909 36.256 158.941 36.32C159.229 37.28 159.885 37.76 160.909 37.76C161.453 37.76 161.901 37.584 162.253 37.232C162.605 36.88 162.781 36.416 162.781 35.84C162.781 35.2 162.621 34.528 162.301 33.824C161.981 33.12 161.645 32.368 161.293 31.568C160.973 30.768 160.813 29.936 160.813 29.072C160.813 28.368 160.925 27.744 161.149 27.2C161.373 26.624 161.789 26.08 162.397 25.568C163.037 25.024 163.773 24.544 164.605 24.128C165.437 23.712 166.269 23.392 167.101 23.168C167.933 22.944 168.637 22.832 169.213 22.832C169.885 22.832 170.333 22.992 170.557 23.312C170.781 23.632 170.893 24.112 170.893 24.752C170.893 24.88 170.877 25.056 170.845 25.28C170.813 25.472 170.717 25.6 170.557 25.664C169.853 25.888 169.101 26.208 168.301 26.624C167.501 27.008 166.957 27.568 166.669 28.304C166.637 28.4 166.573 28.448 166.477 28.448C166.317 28.448 166.237 28.368 166.237 28.208C166.237 27.76 166.509 27.264 167.053 26.72C167.597 26.144 168.045 25.744 168.397 25.52C167.469 25.776 166.541 26.144 165.613 26.624C164.717 27.072 163.965 27.664 163.357 28.4C162.781 29.136 162.493 30.064 162.493 31.184C162.493 32.176 162.701 33.12 163.117 34.016C163.533 34.88 163.741 35.808 163.741 36.8C163.741 37.6 163.517 38.288 163.069 38.864C162.653 39.472 161.997 39.776 161.101 39.776ZM175.68 38.192C175.104 38.192 174.592 38.032 174.144 37.712C173.696 37.36 173.472 36.88 173.472 36.272C173.472 35.792 173.648 35.104 174 34.208C174.384 33.312 174.832 32.368 175.344 31.376C175.888 30.352 176.416 29.408 176.928 28.544C177.44 27.648 177.84 26.96 178.128 26.48C177.424 26.8 176.64 27.36 175.776 28.16C174.944 28.96 174.112 29.872 173.28 30.896C172.448 31.888 171.68 32.88 170.976 33.872C170.272 34.864 169.712 35.696 169.296 36.368C169.072 36.784 168.768 37.168 168.384 37.52C168.032 37.84 167.584 38 167.04 38H166.656C166.688 37.52 166.896 36.784 167.28 35.792C167.664 34.768 168.176 33.6 168.816 32.288C169.456 30.944 170.144 29.568 170.88 28.16C171.648 26.72 172.4 25.328 173.136 23.984C173.904 22.64 174.576 21.456 175.152 20.432C175.76 19.376 176.224 18.608 176.544 18.128C176.864 17.648 177.184 17.184 177.504 16.736C177.824 16.256 178.32 16.016 178.992 16.016C179.216 16.016 179.568 16.08 180.048 16.208C180.528 16.336 180.976 16.496 181.392 16.688C181.84 16.848 182.096 17.024 182.16 17.216C181.552 17.44 180.8 18.064 179.904 19.088C179.04 20.08 178.096 21.296 177.072 22.736C176.08 24.144 175.104 25.616 174.144 27.152C173.216 28.656 172.384 30.048 171.648 31.328C170.912 32.576 170.384 33.536 170.064 34.208C170.064 34.24 170.048 34.272 170.016 34.304C170.016 34.304 170.016 34.32 170.016 34.352C170.016 34.384 170.016 34.4 170.016 34.4C170.048 34.4 170.064 34.4 170.064 34.4C170.096 34.4 170.144 34.352 170.208 34.256C170.272 34.16 170.32 34.096 170.352 34.064C170.832 33.488 171.456 32.688 172.224 31.664C173.024 30.64 173.888 29.6 174.816 28.544C175.744 27.488 176.672 26.592 177.6 25.856C178.56 25.12 179.44 24.752 180.24 24.752C180.592 24.752 180.944 24.848 181.296 25.04C181.68 25.2 181.872 25.472 181.872 25.856C181.872 26.112 181.76 26.384 181.536 26.672C181.376 26.928 181.184 27.184 180.96 27.44C180.768 27.696 180.576 27.952 180.384 28.208C179.616 29.232 178.88 30.304 178.176 31.424C177.504 32.512 176.928 33.664 176.448 34.88C176.384 35.072 176.304 35.28 176.208 35.504C176.144 35.696 176.112 35.904 176.112 36.128C176.112 36.704 176.4 36.992 176.976 36.992C177.456 36.992 178 36.752 178.608 36.272C179.248 35.792 179.904 35.2 180.576 34.496C181.28 33.792 181.92 33.088 182.496 32.384C183.104 31.648 183.616 31.04 184.032 30.56C184.448 30.08 184.704 29.84 184.8 29.84C184.896 29.84 184.944 29.904 184.944 30.032C184.944 30.096 184.704 30.416 184.224 30.992C183.744 31.536 183.168 32.176 182.496 32.912C181.856 33.648 181.248 34.32 180.672 34.928C180.128 35.504 179.776 35.872 179.616 36.032C179.104 36.544 178.496 37.04 177.792 37.52C177.12 37.968 176.416 38.192 175.68 38.192Z" fill="url(#paint1_linear_7_204)" fill-opacity="0.2"/>
</g>
<defs>
<linearGradient id="paint0_linear_7_204" x1="182" y1="2.83734" x2="109.549" y2="31.2743" gradientUnits="userSpaceOnUse">
<stop offset="0.142702" stop-color="#8864F4"/>
<stop offset="1" stop-color="#D668AA"/>
</linearGradient>
<linearGradient id="paint1_linear_7_204" x1="148.5" y1="0" x2="148.5" y2="48" gradientUnits="userSpaceOnUse">
<stop stop-color="#A385FF"/>
<stop offset="1" stop-color="#D0C1FC"/>
</linearGradient>
<clipPath id="clip0_7_204">
<rect width="182" height="48" fill="white"/>
</clipPath>
</defs>
</svg>
