<svg width="25" height="25" viewBox="0 0 25 25" fill="none" xmlns="http://www.w3.org/2000/svg">
<g clip-path="url(#clip0_9_3834)">
<path fill-rule="evenodd" clip-rule="evenodd" d="M21.7345 0.336914C23.3529 0.336914 24.6667 1.65082 24.6667 3.26913V21.4047C24.6667 23.023 23.3528 24.3369 21.7345 24.3369H3.59897C1.98065 24.3369 0.666748 23.023 0.666748 21.4047V3.26913C0.666748 1.65082 1.98061 0.336914 3.59897 0.336914L21.7345 0.336914ZM8.18836 20.1781V9.59759H4.67086V20.1781H8.18836ZM20.8699 20.1781V14.1106C20.8699 10.8606 19.1347 9.34877 16.8208 9.34877C14.955 9.34877 14.1192 10.3749 13.6512 11.0956V9.59759H10.1346C10.1812 10.5904 10.1346 20.1781 10.1346 20.1781H13.6512V14.2692C13.6512 13.9529 13.674 13.6368 13.7671 13.4107C14.0209 12.779 14.6 12.1247 15.5715 12.1247C16.8435 12.1247 17.3531 13.0954 17.3531 14.5171V20.1781H20.8699ZM6.45337 4.49576C5.2499 4.49576 4.46362 5.28696 4.46362 6.32398C4.46362 7.3392 5.226 8.15219 6.40683 8.15219H6.42951C7.656 8.15219 8.41945 7.3392 8.41945 6.32398C8.39672 5.28841 7.65815 4.49801 6.45337 4.49576Z" fill="#0072B1"/>
</g>
<defs>
<clipPath id="clip0_9_3834">
<rect width="24" height="24" fill="white" transform="translate(0.666748 0.336914)"/>
</clipPath>
</defs>
</svg>
