<svg width="42" height="35" viewBox="0 0 42 35" fill="none" xmlns="http://www.w3.org/2000/svg">
<g filter="url(#filter0_dd_12_3926)">
<g clip-path="url(#clip0_12_3926)">
<rect x="7" y="3" width="28" height="20" rx="4" fill="#F93939"/>
<path d="M32.3333 3H9.66667C8.19391 3 7 4.19391 7 5.66667V20.3333C7 21.8061 8.19391 23 9.66667 23H32.3333C33.8061 23 35 21.8061 35 20.3333V5.66667C35 4.19391 33.8061 3 32.3333 3Z" fill="#F93939"/>
<path fill-rule="evenodd" clip-rule="evenodd" d="M14.3308 12.64L12.3708 13.6707L12.7442 11.488L11.1602 9.94132L13.3508 9.62532L14.3308 7.63865L15.3095 9.62532L17.5002 9.94132L15.9135 11.488L16.2895 13.6693L14.3308 12.64ZM19.0002 6.99999H20.3335V8.33332H19.0002V6.99999ZM20.3335 9.66665H21.6668V11H20.3335V9.66665ZM20.3335 12.3333H21.6668V13.6667H20.3335V12.3333ZM19.0002 15H20.3335V16.3333H19.0002V15Z" fill="#FFDA2C"/>
</g>
</g>
<defs>
<filter id="filter0_dd_12_3926" x="0.142857" y="0.714285" width="41.7143" height="33.7143" filterUnits="userSpaceOnUse" color-interpolation-filters="sRGB">
<feFlood flood-opacity="0" result="BackgroundImageFix"/>
<feColorMatrix in="SourceAlpha" type="matrix" values="0 0 0 0 0 0 0 0 0 0 0 0 0 0 0 0 0 0 127 0" result="hardAlpha"/>
<feOffset dy="4.57143"/>
<feGaussianBlur stdDeviation="3.42857"/>
<feComposite in2="hardAlpha" operator="out"/>
<feColorMatrix type="matrix" values="0 0 0 0 0.258824 0 0 0 0 0.278431 0 0 0 0 0.298039 0 0 0 0.08 0"/>
<feBlend mode="normal" in2="BackgroundImageFix" result="effect1_dropShadow_12_3926"/>
<feColorMatrix in="SourceAlpha" type="matrix" values="0 0 0 0 0 0 0 0 0 0 0 0 0 0 0 0 0 0 127 0" result="hardAlpha"/>
<feOffset/>
<feGaussianBlur stdDeviation="0.285714"/>
<feComposite in2="hardAlpha" operator="out"/>
<feColorMatrix type="matrix" values="0 0 0 0 0.258824 0 0 0 0 0.278431 0 0 0 0 0.298039 0 0 0 0.32 0"/>
<feBlend mode="normal" in2="effect1_dropShadow_12_3926" result="effect2_dropShadow_12_3926"/>
<feBlend mode="normal" in="SourceGraphic" in2="effect2_dropShadow_12_3926" result="shape"/>
</filter>
<clipPath id="clip0_12_3926">
<rect x="7" y="3" width="28" height="20" rx="4" fill="white"/>
</clipPath>
</defs>
</svg>
