<svg width="42" height="35" viewBox="0 0 42 35" fill="none" xmlns="http://www.w3.org/2000/svg">
<g filter="url(#filter0_dd_12_3921)">
<g clip-path="url(#clip0_12_3921)">
<rect x="7" y="3" width="28" height="20" rx="4" fill="white"/>
<path fill-rule="evenodd" clip-rule="evenodd" d="M7 16.3333H35V23H7V16.3333Z" fill="#249F58"/>
<path fill-rule="evenodd" clip-rule="evenodd" d="M20.9999 16.3333C22.8399 16.3333 24.3333 14.84 24.3333 13C24.3333 11.16 22.8399 9.66667 20.9999 9.66667C19.1599 9.66667 17.6666 11.16 17.6666 13C17.6666 14.84 19.1599 16.3333 20.9999 16.3333ZM20.9999 15C22.1039 15 22.9999 14.104 22.9999 13C22.9999 11.896 22.1039 11 20.9999 11C19.8959 11 18.9999 11.896 18.9999 13C18.9999 14.104 19.8959 15 20.9999 15Z" fill="#1A47B8"/>
<path d="M20.9999 13.6667C21.3681 13.6667 21.6665 13.3682 21.6665 13C21.6665 12.6318 21.3681 12.3333 20.9999 12.3333C20.6317 12.3333 20.3332 12.6318 20.3332 13C20.3332 13.3682 20.6317 13.6667 20.9999 13.6667Z" fill="#1A47B8"/>
<path fill-rule="evenodd" clip-rule="evenodd" d="M7 3H35V9.66667H7V3Z" fill="#FF6C2D"/>
</g>
</g>
<defs>
<filter id="filter0_dd_12_3921" x="0.142857" y="0.714285" width="41.7143" height="33.7143" filterUnits="userSpaceOnUse" color-interpolation-filters="sRGB">
<feFlood flood-opacity="0" result="BackgroundImageFix"/>
<feColorMatrix in="SourceAlpha" type="matrix" values="0 0 0 0 0 0 0 0 0 0 0 0 0 0 0 0 0 0 127 0" result="hardAlpha"/>
<feOffset dy="4.57143"/>
<feGaussianBlur stdDeviation="3.42857"/>
<feComposite in2="hardAlpha" operator="out"/>
<feColorMatrix type="matrix" values="0 0 0 0 0.258824 0 0 0 0 0.278431 0 0 0 0 0.298039 0 0 0 0.08 0"/>
<feBlend mode="normal" in2="BackgroundImageFix" result="effect1_dropShadow_12_3921"/>
<feColorMatrix in="SourceAlpha" type="matrix" values="0 0 0 0 0 0 0 0 0 0 0 0 0 0 0 0 0 0 127 0" result="hardAlpha"/>
<feOffset/>
<feGaussianBlur stdDeviation="0.285714"/>
<feComposite in2="hardAlpha" operator="out"/>
<feColorMatrix type="matrix" values="0 0 0 0 0.258824 0 0 0 0 0.278431 0 0 0 0 0.298039 0 0 0 0.32 0"/>
<feBlend mode="normal" in2="effect1_dropShadow_12_3921" result="effect2_dropShadow_12_3921"/>
<feBlend mode="normal" in="SourceGraphic" in2="effect2_dropShadow_12_3921" result="shape"/>
</filter>
<clipPath id="clip0_12_3921">
<rect x="7" y="3" width="28" height="20" rx="4" fill="white"/>
</clipPath>
</defs>
</svg>
