<svg width="42" height="35" viewBox="0 0 42 35" fill="none" xmlns="http://www.w3.org/2000/svg">
<g filter="url(#filter0_dd_13_3937)">
<g clip-path="url(#clip0_13_3937)">
<rect x="7" y="3" width="28" height="20" rx="4" fill="#F93939"/>
<path d="M32.3333 3H9.66667C8.19391 3 7 4.19391 7 5.66667V20.3333C7 21.8061 8.19391 23 9.66667 23H32.3333C33.8061 23 35 21.8061 35 20.3333V5.66667C35 4.19391 33.8061 3 32.3333 3Z" fill="#F93939"/>
<path fill-rule="evenodd" clip-rule="evenodd" d="M7 3H35V13.6667H7V3Z" fill="#1A47B8"/>
<path fill-rule="evenodd" clip-rule="evenodd" d="M7 3V23.044L20.3333 13L7 3Z" fill="white"/>
<path d="M10.3334 17.6667C10.7016 17.6667 11.0001 17.3682 11.0001 17C11.0001 16.6318 10.7016 16.3333 10.3334 16.3333C9.96522 16.3333 9.66675 16.6318 9.66675 17C9.66675 17.3682 9.96522 17.6667 10.3334 17.6667Z" fill="#FFDA2C"/>
<path d="M16.9999 13.6667C17.3681 13.6667 17.6666 13.3682 17.6666 13C17.6666 12.6318 17.3681 12.3333 16.9999 12.3333C16.6318 12.3333 16.3333 12.6318 16.3333 13C16.3333 13.3682 16.6318 13.6667 16.9999 13.6667Z" fill="#FFDA2C"/>
<path fill-rule="evenodd" clip-rule="evenodd" d="M12.9801 13.6467C14.1401 13.5733 15.0001 13.3133 15.0001 13C15.0001 12.688 14.1401 12.4267 12.9801 12.3533C12.9067 11.1933 12.6467 10.3333 12.3334 10.3333C12.0214 10.3333 11.7601 11.1933 11.6867 12.3533C10.5267 12.4267 9.66675 12.6867 9.66675 13C9.66675 13.312 10.5267 13.5733 11.6867 13.6467C11.7587 14.8067 12.0201 15.6667 12.3334 15.6667C12.6454 15.6667 12.9067 14.8067 12.9801 13.6467Z" fill="#FFDA2C"/>
<path d="M10.3334 9.66669C10.7016 9.66669 11.0001 9.36822 11.0001 9.00003C11.0001 8.63184 10.7016 8.33336 10.3334 8.33336C9.96522 8.33336 9.66675 8.63184 9.66675 9.00003C9.66675 9.36822 9.96522 9.66669 10.3334 9.66669Z" fill="#FFDA2C"/>
</g>
</g>
<defs>
<filter id="filter0_dd_13_3937" x="0.142857" y="0.714285" width="41.7143" height="33.7143" filterUnits="userSpaceOnUse" color-interpolation-filters="sRGB">
<feFlood flood-opacity="0" result="BackgroundImageFix"/>
<feColorMatrix in="SourceAlpha" type="matrix" values="0 0 0 0 0 0 0 0 0 0 0 0 0 0 0 0 0 0 127 0" result="hardAlpha"/>
<feOffset dy="4.57143"/>
<feGaussianBlur stdDeviation="3.42857"/>
<feComposite in2="hardAlpha" operator="out"/>
<feColorMatrix type="matrix" values="0 0 0 0 0.258824 0 0 0 0 0.278431 0 0 0 0 0.298039 0 0 0 0.08 0"/>
<feBlend mode="normal" in2="BackgroundImageFix" result="effect1_dropShadow_13_3937"/>
<feColorMatrix in="SourceAlpha" type="matrix" values="0 0 0 0 0 0 0 0 0 0 0 0 0 0 0 0 0 0 127 0" result="hardAlpha"/>
<feOffset/>
<feGaussianBlur stdDeviation="0.285714"/>
<feComposite in2="hardAlpha" operator="out"/>
<feColorMatrix type="matrix" values="0 0 0 0 0.258824 0 0 0 0 0.278431 0 0 0 0 0.298039 0 0 0 0.32 0"/>
<feBlend mode="normal" in2="effect1_dropShadow_13_3937" result="effect2_dropShadow_13_3937"/>
<feBlend mode="normal" in="SourceGraphic" in2="effect2_dropShadow_13_3937" result="shape"/>
</filter>
<clipPath id="clip0_13_3937">
<rect x="7" y="3" width="28" height="20" rx="4" fill="white"/>
</clipPath>
</defs>
</svg>
