<svg width="42" height="35" viewBox="0 0 42 35" fill="none" xmlns="http://www.w3.org/2000/svg">
<g filter="url(#filter0_dd_12_3935)">
<g clip-path="url(#clip0_12_3935)">
<rect x="7" y="3" width="28" height="20" rx="4" fill="#F93939"/>
<path d="M32.3333 3H9.66667C8.19391 3 7 4.19391 7 5.66667V20.3333C7 21.8061 8.19391 23 9.66667 23H32.3333C33.8061 23 35 21.8061 35 20.3333V5.66667C35 4.19391 33.8061 3 32.3333 3Z" fill="#F93939"/>
<path fill-rule="evenodd" clip-rule="evenodd" d="M7 8.33336H35V17.6667H7V8.33336Z" fill="#FFDA2C"/>
<path fill-rule="evenodd" clip-rule="evenodd" d="M19 11.296V14.656C19 15.5894 18.104 16.336 17 16.336H14.3334C13.232 16.3334 12.3334 15.5827 12.3334 14.6534V11.2934C12.3334 10.5307 12.9307 9.89337 13.752 9.68671C14 8.99337 14.7627 9.61471 15.6667 9.61471C16.576 9.61471 17.3334 8.99737 17.5814 9.68804C18.4 9.90004 19 10.5387 19 11.296Z" fill="#D4AF2C"/>
<path fill-rule="evenodd" clip-rule="evenodd" d="M18.9999 12.3333H20.3333V16.3333H18.9999V12.3333ZM10.9999 12.3333H12.3333V16.3333H10.9999V12.3333Z" fill="#CBCBCB"/>
<path fill-rule="evenodd" clip-rule="evenodd" d="M18.9999 15H20.3333V16.3333H18.9999V15ZM10.9999 15H12.3333V16.3333H10.9999V15Z" fill="#1A47B8"/>
<path fill-rule="evenodd" clip-rule="evenodd" d="M18.9999 11H20.3333V12.3333H18.9999V11ZM10.9999 11H12.3333V12.3333H10.9999V11Z" fill="#D4AF2C"/>
<path fill-rule="evenodd" clip-rule="evenodd" d="M13.6667 11H15V13H13.6667V11ZM16.3333 13.6667H17.6667V15.6667H16.3333V13.6667Z" fill="#AF010D"/>
<path fill-rule="evenodd" clip-rule="evenodd" d="M13.6667 13.6667H15V15.6667H13.6667V13.6667Z" fill="#FFDA2C"/>
<path fill-rule="evenodd" clip-rule="evenodd" d="M16.3333 11H17.6666V13H16.3333V11Z" fill="#AE6A3E"/>
<path fill-rule="evenodd" clip-rule="evenodd" d="M15 11L13.6667 9.6667H17.6667L16.3333 11H15Z" fill="#AF010D"/>
<path fill-rule="evenodd" clip-rule="evenodd" d="M14.9998 8.33336H16.3332V9.66669H14.9998V8.33336Z" fill="#D4AF2C"/>
</g>
</g>
<defs>
<filter id="filter0_dd_12_3935" x="0.142857" y="0.714285" width="41.7143" height="33.7143" filterUnits="userSpaceOnUse" color-interpolation-filters="sRGB">
<feFlood flood-opacity="0" result="BackgroundImageFix"/>
<feColorMatrix in="SourceAlpha" type="matrix" values="0 0 0 0 0 0 0 0 0 0 0 0 0 0 0 0 0 0 127 0" result="hardAlpha"/>
<feOffset dy="4.57143"/>
<feGaussianBlur stdDeviation="3.42857"/>
<feComposite in2="hardAlpha" operator="out"/>
<feColorMatrix type="matrix" values="0 0 0 0 0.258824 0 0 0 0 0.278431 0 0 0 0 0.298039 0 0 0 0.08 0"/>
<feBlend mode="normal" in2="BackgroundImageFix" result="effect1_dropShadow_12_3935"/>
<feColorMatrix in="SourceAlpha" type="matrix" values="0 0 0 0 0 0 0 0 0 0 0 0 0 0 0 0 0 0 127 0" result="hardAlpha"/>
<feOffset/>
<feGaussianBlur stdDeviation="0.285714"/>
<feComposite in2="hardAlpha" operator="out"/>
<feColorMatrix type="matrix" values="0 0 0 0 0.258824 0 0 0 0 0.278431 0 0 0 0 0.298039 0 0 0 0.32 0"/>
<feBlend mode="normal" in2="effect1_dropShadow_12_3935" result="effect2_dropShadow_12_3935"/>
<feBlend mode="normal" in="SourceGraphic" in2="effect2_dropShadow_12_3935" result="shape"/>
</filter>
<clipPath id="clip0_12_3935">
<rect x="7" y="3" width="28" height="20" rx="4" fill="white"/>
</clipPath>
</defs>
</svg>
