<svg width="42" height="35" viewBox="0 0 42 35" fill="none" xmlns="http://www.w3.org/2000/svg">
<g filter="url(#filter0_dd_12_3923)">
<g clip-path="url(#clip0_12_3923)">
<rect x="7" y="3" width="28" height="20" rx="4" fill="#1A47B8"/>
<path fill-rule="evenodd" clip-rule="evenodd" d="M9.97863 3H7V6.33333L32.0052 23L35 23V19.6667L9.97863 3Z" fill="white"/>
<path d="M7.99346 3L35 21.0472V23L34.0298 23L7 4.93408V3H7.99346Z" fill="#F93939"/>
<path fill-rule="evenodd" clip-rule="evenodd" d="M32.3333 3H35V6.33333C35 6.33333 17.6797 17.4374 9.66667 23H7V19.6667L32.3333 3Z" fill="white"/>
<path d="M35 3H34.0957L7 21.0628V23H7.99346L35 4.94868V3Z" fill="#F93939"/>
<path fill-rule="evenodd" clip-rule="evenodd" d="M17.1828 3H24.8405V9.16909H35V16.8268H24.8405V23H17.1828V16.8268H7V9.16909H17.1828V3Z" fill="white"/>
<path fill-rule="evenodd" clip-rule="evenodd" d="M18.7895 3H23.2105V10.6923H35V15.3077H23.2105V23H18.7895V15.3077H7V10.6923H18.7895V3Z" fill="#F93939"/>
</g>
</g>
<defs>
<filter id="filter0_dd_12_3923" x="0.142857" y="0.714285" width="41.7143" height="33.7143" filterUnits="userSpaceOnUse" color-interpolation-filters="sRGB">
<feFlood flood-opacity="0" result="BackgroundImageFix"/>
<feColorMatrix in="SourceAlpha" type="matrix" values="0 0 0 0 0 0 0 0 0 0 0 0 0 0 0 0 0 0 127 0" result="hardAlpha"/>
<feOffset dy="4.57143"/>
<feGaussianBlur stdDeviation="3.42857"/>
<feComposite in2="hardAlpha" operator="out"/>
<feColorMatrix type="matrix" values="0 0 0 0 0.258824 0 0 0 0 0.278431 0 0 0 0 0.298039 0 0 0 0.08 0"/>
<feBlend mode="normal" in2="BackgroundImageFix" result="effect1_dropShadow_12_3923"/>
<feColorMatrix in="SourceAlpha" type="matrix" values="0 0 0 0 0 0 0 0 0 0 0 0 0 0 0 0 0 0 127 0" result="hardAlpha"/>
<feOffset/>
<feGaussianBlur stdDeviation="0.285714"/>
<feComposite in2="hardAlpha" operator="out"/>
<feColorMatrix type="matrix" values="0 0 0 0 0.258824 0 0 0 0 0.278431 0 0 0 0 0.298039 0 0 0 0.32 0"/>
<feBlend mode="normal" in2="effect1_dropShadow_12_3923" result="effect2_dropShadow_12_3923"/>
<feBlend mode="normal" in="SourceGraphic" in2="effect2_dropShadow_12_3923" result="shape"/>
</filter>
<clipPath id="clip0_12_3923">
<rect x="7" y="3" width="28" height="20" rx="4" fill="white"/>
</clipPath>
</defs>
</svg>
